<?xml version="1.0" standalone="no"?><!DOCTYPE svg PUBLIC "-//W3C//DTD SVG 1.1//EN" "http://www.w3.org/Graphics/SVG/1.1/DTD/svg11.dtd"><svg t="1720942049976" class="icon" viewBox="0 0 1024 1024" version="1.1" xmlns="http://www.w3.org/2000/svg" p-id="9079" width="128" height="128" xmlns:xlink="http://www.w3.org/1999/xlink"><path d="M480 164.571429l100.571429 212.297142L461.824 512l158.500571 193.060571L541.074286 859.428571H73.142857V164.571429z" fill="#000000" opacity=".08" p-id="9080"></path><path d="M566.857143 164.571429l99.108571 212.443428-118.546285 134.948572 159.158857 193.353142L626.998857 859.428571H950.857143V164.571429z" fill="#000000" fill-opacity=".08" p-id="9081" data-spm-anchor-id="a313x.search_index.0.i3.7dc63a814EjGmX" class=""></path><path d="M182.893714 749.714286v-85.357715l132.315429-138.605714 157.312 132.205714 56.758857-63.744 90.916571 110.884572L597.394286 749.714286zM841.142857 749.714286h-157.568l22.985143-44.470857-132.681143-161.206858 93.257143-105.179428 174.061714 215.844571z" fill="#000000" fill-opacity=".08" p-id="9082" data-spm-anchor-id="a313x.search_index.0.i4.7dc63a814EjGmX" class=""></path><path d="M329.142857 347.428571m-73.142857 0a73.142857 73.142857 0 1 0 146.285714 0 73.142857 73.142857 0 1 0-146.285714 0Z" fill="#000000" opacity=".08" p-id="9083"></path></svg>