<?xml version="1.0" standalone="no"?><!DOCTYPE svg PUBLIC "-//W3C//DTD SVG 1.1//EN" "http://www.w3.org/Graphics/SVG/1.1/DTD/svg11.dtd"><svg t="1727338616489" class="icon" viewBox="0 0 1024 1024" version="1.1" xmlns="http://www.w3.org/2000/svg" p-id="22917" xmlns:xlink="http://www.w3.org/1999/xlink" width="128" height="128"><path d="M44.864 324h86.24c2.112-86.912 34.592-158.72 103.168-212.384 54.016-42.304 116.512-55.36 184.32-50.112V166.72c-2.368 0-4.576-0.096-6.784 0-18.048 0.768-36.256 0.416-54.08 2.688-27.808 3.584-51.872 16.352-72.8 34.816a155.904 155.904 0 0 0-50.304 86.944c-2.208 10.464-2.848 21.248-4.256 32.448h78.016l-131.904 154.176-131.584-153.76z m440.992 630.112c-9.12 6.912-19.616 9.536-30.816 9.536-111.04 0.032-222.08 0.096-333.12-0.032-24.928-0.032-42.592-13.44-48.96-36.608-1.28-4.608-1.728-9.6-1.728-14.432-0.096-98.688-0.096-197.376-0.064-296.064 0-24.928 13.376-43.04 36.736-49.408 5.12-1.376 10.656-1.728 16-1.76 54.816-0.096 109.664-0.096 164.48-0.096h164.992c12.32 0 23.776 2.624 33.632 10.496 11.232 8.96 17.248 20.64 18.4 34.912 0.16 1.888 0.192 3.808 0.192 5.728l0.032 296.064c0 17.088-5.952 31.2-19.744 41.664z m40.608-505.312c-13.344-10.016-19.776-23.68-19.808-40.064-0.096-99.744-0.16-199.456 0.032-299.2 0.032-24.032 14.208-41.952 37.216-47.936 4.8-1.248 9.984-1.536 14.976-1.568 110.016-0.096 220-0.064 329.984-0.064 21.088 0 37.76 8 47.008 27.52 3.136 6.688 4.928 14.688 4.96 22.08 0.32 99.712 0.256 199.456 0.16 299.2-0.032 23.776-13.792 41.6-36.704 47.808-5.12 1.376-10.656 1.696-16 1.696-54.816 0.128-109.632 0.064-164.48 0.064h-164.992c-11.776 0-22.816-2.368-32.416-9.568z m378.496 251.712c-2.528 90.4-37.216 164.032-110.464 217.6-52.608 38.496-112.672 49.728-177.056 44.832V857.6c10.24 0 20.32 0.384 30.336-0.096 11.424-0.544 23.072-0.736 34.208-3.008 42.24-8.576 74.624-32.032 97.824-68.032 16.64-25.728 24.608-54.24 25.12-85.536h-77.472l132.096-154.336 131.712 153.888h-86.336z" p-id="22918" fill="#00d27b"></path></svg>
